# xmcd
#
# Track frame offsets: 
#        150
#        16919
#        31674
#        49523
#        63573
#        82335
#        98872
#        115084
#        134118
#        157375
#        179692
#        195769
#        221284
#        236136
#        254895
#        268376
#        293393
#        309285
#
# Disc length: 4359 seconds
#
# Revision: 1
# Processed by: cddbd v1.5.2PL0 Copyright (c) Steve Scherf et al.
# Submitted via: ExactAudioCopy v1.1
#
DISCID=0b110512
DTITLE=Faith Hill - There You'll Be
DYEAR=1900
DGENRE=Country
TTITLE0=There You'll Be
TTITLE1=This Kiss( pop radio version)
TTITLE2=Breathe ( Tin Tin Out Remix)
TTITLE3=The Way You Love Me
TTITLE4=Let Me Let Go
TTITLE5=Piece of My Heart
TTITLE6=If My Heart Had Wings (Single versioin)
TTITLE7=There Will Come A Day
TTITLE8=Love Will Always Win
TTITLE9=My Wild Frontier
TTITLE10=You Give Me Love
TTITLE11=Somewhere Down The Road
TTITLE12=Over The Rainbow
TTITLE13=Breathe ( pop remix)
TTITLE14=The Way You Love Me ( Love To Infinity Remix)
TTITLE15=What's In It For Me
TTITLE16=I Got My Boby
TTITLE17=Love Is A Sweet Thing
EXTD=
EXTT0=
EXTT1=
EXTT2=
EXTT3=
EXTT4=
EXTT5=
EXTT6=
EXTT7=
EXTT8=
EXTT9=
EXTT10=
EXTT11=
EXTT12=
EXTT13=
EXTT14=
EXTT15=
EXTT16=
EXTT17=
PLAYORDER=
